<svg xmlns="http://www.w3.org/2000/svg" fill="none" viewBox="0 0 600 600" height="600" width="600">
<path fill="#242424" d="M564 36H36V564H564V36ZM559.874 559.874C465 475.737 317 286.737 300 489.737C283 286.737 135 475.737 40.126 560.005C124.526 465 313.526 317 110.526 300C313.526 283 124.526 135 40.126 40.126V39.6C135 124 283 313 300 110C317 313 465 124 559.874 39.732C475.474 134.737 286.474 282.737 489.474 299.737C286.474 316.737 475.474 464.737 559.874 559.874Z"></path>
<path stroke-width="4" stroke="#242424" d="M564 36H36V564H564V36ZM559.874 559.874C465 475.737 317 286.737 300 489.737C283 286.737 135 475.737 40.126 560.005C124.526 465 313.526 317 110.526 300C313.526 283 124.526 135 40.126 40.126V39.6C135 124 283 313 300 110C317 313 465 124 559.874 39.732C475.474 134.737 286.474 282.737 489.474 299.737C286.474 316.737 475.474 464.737 559.874 559.874Z"></path>
</svg>
